<svg clip-rule="evenodd" fill-rule="evenodd" stroke-linecap="round" stroke-linejoin="round" stroke-miterlimit="1.5" viewBox="0 0 32 32" xmlns="http://www.w3.org/2000/svg" xmlns:xlink="http://www.w3.org/1999/xlink"><clipPath id="a"><path clip-rule="evenodd" d="m0 0h32v32h-32z"/></clipPath><clipPath id="b"><path clip-rule="evenodd" d="m28 16c0-.53-.211-1.039-.586-1.414s-.884-.586-1.414-.586c-4.52 0-15.48 0-20 0-.53 0-1.039.211-1.414.586s-.586.884-.586 1.414v12c0 .53.211 1.039.586 1.414s.884.586 1.414.586h20c.53 0 1.039-.211 1.414-.586s.586-.884.586-1.414c0-3.074 0-8.926 0-12z"/></clipPath><path d="m0 0h32v32h-32z" fill="none"/><g clip-path="url(#a)"><g fill="none"><path d="m28 16c0-.53-.211-1.039-.586-1.414s-.884-.586-1.414-.586c-4.52 0-15.48 0-20 0-.53 0-1.039.211-1.414.586s-.586.884-.586 1.414v12c0 .53.211 1.039.586 1.414s.884.586 1.414.586h20c.53 0 1.039-.211 1.414-.586s.586-.884.586-1.414c0-3.074 0-8.926 0-12z" stroke="#000" stroke-width="4"/><path d="m8 10v-4.5" stroke="#000" stroke-width="7"/><path d="m24 10.5v-5" stroke="#000" stroke-width="7"/><path d="m16 7.5v-4" stroke="#000" stroke-width="7"/><path d="m8 10.5v-5" stroke="#fff" stroke-width="3"/><path d="m24 10.5v-5" stroke="#fff" stroke-width="3"/><path d="m16 7.5v-4" stroke="#fff" stroke-width="3"/></g><path d="m28 16c0-.53-.211-1.039-.586-1.414s-.884-.586-1.414-.586c-4.52 0-15.48 0-20 0-.53 0-1.039.211-1.414.586s-.586.884-.586 1.414v12c0 .53.211 1.039.586 1.414s.884.586 1.414.586h20c.53 0 1.039-.211 1.414-.586s.586-.884.586-1.414c0-3.074 0-8.926 0-12z" fill="#fff"/><g clip-path="url(#b)" stroke-width="2"><path d="m4 30 12-11.556 12 11.556" fill="none" stroke="#ccc"/><path d="m4 14s6.595 5.862 10.007 8.895c1.137 1.01 2.849 1.01 3.986 0 3.412-3.033 10.007-8.895 10.007-8.895" fill="#fff" stroke="#999"/></g></g></svg>