<svg width="500" height="94" viewBox="0 0 500 94" fill="none" xmlns="http://www.w3.org/2000/svg">
  <path
    d="M478.909 70.6364C475.182 70.6364 471.97 69.9242 469.273 68.5C466.591 67.0606 464.523 65 463.068 62.3182C461.629 59.6212 460.909 56.3939 460.909 52.6364C460.909 49.0303 461.636 45.8788 463.091 43.1818C464.545 40.4848 466.598 38.3864 469.25 36.8864C471.902 35.3864 475.03 34.6364 478.636 34.6364C481.273 34.6364 483.659 35.0455 485.795 35.8636C487.932 36.6818 489.758 37.8712 491.273 39.4318C492.788 40.9773 493.955 42.8561 494.773 45.0682C495.591 47.2803 496 49.7727 496 52.5455V55.4545H464.818V48.5455H484.455C484.439 47.5455 484.182 46.6667 483.682 45.9091C483.197 45.1364 482.538 44.5379 481.705 44.1136C480.886 43.6742 479.955 43.4545 478.909 43.4545C477.894 43.4545 476.962 43.6742 476.114 44.1136C475.265 44.5379 474.583 45.1288 474.068 45.8864C473.568 46.6439 473.303 47.5303 473.273 48.5455V56C473.273 57.1212 473.508 58.1212 473.977 59C474.447 59.8788 475.121 60.5682 476 61.0682C476.879 61.5682 477.939 61.8182 479.182 61.8182C480.045 61.8182 480.833 61.697 481.545 61.4545C482.273 61.2121 482.894 60.8636 483.409 60.4091C483.924 59.9394 484.303 59.3788 484.545 58.7273H496C495.606 61.1515 494.674 63.2576 493.205 65.0455C491.735 66.8182 489.788 68.197 487.364 69.1818C484.955 70.1515 482.136 70.6364 478.909 70.6364Z" />
  <path
    d="M440.188 70.6364C436.4 70.6364 433.157 69.8864 430.46 68.3864C427.763 66.8712 425.695 64.7651 424.256 62.0682C422.816 59.3561 422.097 56.2121 422.097 52.6364C422.097 49.0606 422.816 45.9242 424.256 43.2273C425.695 40.5152 427.763 38.4091 430.46 36.9091C433.157 35.3939 436.4 34.6364 440.188 34.6364C443.612 34.6364 446.574 35.2576 449.074 36.5C451.589 37.7273 453.536 39.4697 454.915 41.7273C456.294 43.9697 456.991 46.6061 457.006 49.6364H445.369C445.203 47.803 444.672 46.4091 443.778 45.4545C442.9 44.4848 441.763 44 440.369 44C439.278 44 438.324 44.3182 437.506 44.9545C436.687 45.5758 436.051 46.5227 435.597 47.7955C435.142 49.053 434.915 50.6364 434.915 52.5455C434.915 54.4545 435.142 56.0455 435.597 57.3182C436.051 58.5758 436.687 59.5227 437.506 60.1591C438.324 60.7803 439.278 61.0909 440.369 61.0909C441.294 61.0909 442.112 60.8788 442.824 60.4545C443.536 60.0152 444.112 59.3788 444.551 58.5455C445.006 57.697 445.278 56.6667 445.369 55.4545H457.006C456.96 58.5303 456.256 61.2121 454.892 63.5C453.528 65.7727 451.597 67.5303 449.097 68.7727C446.612 70.0152 443.642 70.6364 440.188 70.6364Z" />
  <path
    d="M394.54 50.3636V70H381.994V35.0909H393.903V41.7273H394.267C395.025 39.5152 396.358 37.7803 398.267 36.5227C400.191 35.2652 402.434 34.6364 404.994 34.6364C407.464 34.6364 409.608 35.2045 411.426 36.3409C413.259 37.4621 414.676 39.0076 415.676 40.9773C416.691 42.947 417.191 45.197 417.176 47.7273V70H404.631V50.3636C404.646 48.6364 404.206 47.2803 403.312 46.2955C402.434 45.3106 401.206 44.8182 399.631 44.8182C398.6 44.8182 397.699 45.0455 396.926 45.5C396.169 45.9394 395.585 46.5758 395.176 47.4091C394.767 48.2273 394.555 49.2121 394.54 50.3636Z" />
  <path
    d="M353.909 70.5455C351.682 70.5455 349.712 70.1818 348 69.4545C346.303 68.7121 344.97 67.5909 344 66.0909C343.03 64.5909 342.545 62.6818 342.545 60.3636C342.545 58.4545 342.871 56.8258 343.523 55.4773C344.174 54.1136 345.083 53 346.25 52.1364C347.417 51.2727 348.773 50.6136 350.318 50.1591C351.879 49.7045 353.561 49.4091 355.364 49.2727C357.318 49.1212 358.886 48.9394 360.068 48.7273C361.265 48.5 362.129 48.1894 362.659 47.7955C363.189 47.3864 363.455 46.8485 363.455 46.1818V46.0909C363.455 45.1818 363.106 44.4848 362.409 44C361.712 43.5152 360.818 43.2727 359.727 43.2727C358.53 43.2727 357.553 43.5379 356.795 44.0682C356.053 44.5833 355.606 45.3788 355.455 46.4545H343.909C344.061 44.3333 344.735 42.3788 345.932 40.5909C347.144 38.7879 348.909 37.3485 351.227 36.2727C353.545 35.1818 356.439 34.6364 359.909 34.6364C362.409 34.6364 364.652 34.9318 366.636 35.5227C368.621 36.0985 370.311 36.9091 371.705 37.9545C373.098 38.9848 374.159 40.197 374.886 41.5909C375.629 42.9697 376 44.4697 376 46.0909V70H364.273V65.0909H364C363.303 66.3939 362.455 67.447 361.455 68.25C360.47 69.053 359.341 69.6364 358.068 70C356.811 70.3636 355.424 70.5455 353.909 70.5455ZM358 62.6364C358.955 62.6364 359.848 62.4394 360.682 62.0455C361.53 61.6515 362.22 61.0833 362.75 60.3409C363.28 59.5985 363.545 58.697 363.545 57.6364V54.7273C363.212 54.8636 362.856 54.9924 362.477 55.1136C362.114 55.2348 361.72 55.3485 361.295 55.4545C360.886 55.5606 360.447 55.6591 359.977 55.75C359.523 55.8409 359.045 55.9242 358.545 56C357.576 56.1515 356.78 56.4015 356.159 56.75C355.553 57.0833 355.098 57.5 354.795 58C354.508 58.4848 354.364 59.0303 354.364 59.6364C354.364 60.6061 354.705 61.3485 355.386 61.8636C356.068 62.3788 356.939 62.6364 358 62.6364Z" />
  <path
    d="M339.062 35.0909V44.1818H316.062V35.0909H339.062ZM320.517 26.7273H333.062V58.7727C333.062 59.2576 333.146 59.6667 333.312 60C333.479 60.3182 333.737 60.5606 334.085 60.7273C334.434 60.8788 334.881 60.9545 335.426 60.9545C335.805 60.9545 336.244 60.9091 336.744 60.8182C337.259 60.7273 337.638 60.6515 337.881 60.5909L339.699 69.4091C339.138 69.5758 338.335 69.7803 337.29 70.0227C336.259 70.2652 335.032 70.4242 333.608 70.5C330.729 70.6515 328.312 70.3561 326.358 69.6136C324.403 68.8561 322.934 67.6667 321.949 66.0455C320.964 64.4242 320.487 62.3939 320.517 59.9545V26.7273Z" />
  <path
    d="M312.528 46.4545H300.983C300.922 45.7424 300.672 45.1288 300.233 44.6136C299.794 44.0985 299.225 43.7045 298.528 43.4318C297.847 43.1439 297.089 43 296.256 43C295.18 43 294.256 43.197 293.483 43.5909C292.71 43.9848 292.331 44.5455 292.347 45.2727C292.331 45.7879 292.551 46.2652 293.006 46.7045C293.475 47.1439 294.377 47.4848 295.71 47.7273L302.801 49C306.377 49.6515 309.036 50.75 310.778 52.2955C312.536 53.8258 313.422 55.8788 313.438 58.4545C313.422 60.9394 312.68 63.0985 311.21 64.9318C309.756 66.75 307.763 68.1591 305.233 69.1591C302.718 70.1439 299.847 70.6364 296.619 70.6364C291.286 70.6364 287.112 69.5455 284.097 67.3636C281.097 65.1818 279.422 62.303 279.074 58.7273H291.528C291.695 59.8333 292.241 60.6894 293.165 61.2955C294.104 61.8864 295.286 62.1818 296.71 62.1818C297.862 62.1818 298.809 61.9848 299.551 61.5909C300.309 61.197 300.695 60.6364 300.71 59.9091C300.695 59.2424 300.362 58.7121 299.71 58.3182C299.074 57.9242 298.074 57.6061 296.71 57.3636L290.528 56.2727C286.968 55.6515 284.301 54.4697 282.528 52.7273C280.756 50.9848 279.877 48.7424 279.892 46C279.877 43.5758 280.513 41.5227 281.801 39.8409C283.104 38.1439 284.96 36.8561 287.369 35.9773C289.794 35.0833 292.665 34.6364 295.983 34.6364C301.028 34.6364 305.006 35.6818 307.915 37.7727C310.839 39.8636 312.377 42.7576 312.528 46.4545Z" />
  <path
    d="M251.79 50.3636V70H239.244V35.0909H251.153V41.7273H251.517C252.275 39.5152 253.608 37.7803 255.517 36.5227C257.441 35.2652 259.684 34.6364 262.244 34.6364C264.714 34.6364 266.858 35.2045 268.676 36.3409C270.509 37.4621 271.926 39.0076 272.926 40.9773C273.941 42.947 274.441 45.197 274.426 47.7273V70H261.881V50.3636C261.896 48.6364 261.456 47.2803 260.562 46.2955C259.684 45.3106 258.456 44.8182 256.881 44.8182C255.85 44.8182 254.949 45.0455 254.176 45.5C253.419 45.9394 252.835 46.5758 252.426 47.4091C252.017 48.2273 251.805 49.2121 251.79 50.3636Z" />
  <path d="M233.074 23.4545V70H220.438V23.4545H233.074Z" />
  <path
    d="M202.75 35.0909V44.1818H179.75V35.0909H202.75ZM184.205 26.7273H196.75V58.7727C196.75 59.2576 196.833 59.6667 197 60C197.167 60.3182 197.424 60.5606 197.773 60.7273C198.121 60.8788 198.568 60.9545 199.114 60.9545C199.492 60.9545 199.932 60.9091 200.432 60.8182C200.947 60.7273 201.326 60.6515 201.568 60.5909L203.386 69.4091C202.826 69.5758 202.023 69.7803 200.977 70.0227C199.947 70.2652 198.72 70.4242 197.295 70.5C194.417 70.6515 192 70.3561 190.045 69.6136C188.091 68.8561 186.621 67.6667 185.636 66.0455C184.652 64.4242 184.174 62.3939 184.205 59.9545V26.7273Z" />
  <path d="M175.54 23.4545V70H162.994V23.4545H175.54Z" />
  <path
    d="M139.812 70.6364C136.025 70.6364 132.782 69.8864 130.085 68.3864C127.388 66.8712 125.32 64.7651 123.881 62.0682C122.441 59.3561 121.722 56.2121 121.722 52.6364C121.722 49.0606 122.441 45.9242 123.881 43.2273C125.32 40.5152 127.388 38.4091 130.085 36.9091C132.782 35.3939 136.025 34.6364 139.812 34.6364C143.6 34.6364 146.843 35.3939 149.54 36.9091C152.237 38.4091 154.305 40.5152 155.744 43.2273C157.184 45.9242 157.903 49.0606 157.903 52.6364C157.903 56.2121 157.184 59.3561 155.744 62.0682C154.305 64.7651 152.237 66.8712 149.54 68.3864C146.843 69.8864 143.6 70.6364 139.812 70.6364ZM139.903 61.3636C140.964 61.3636 141.881 61.0076 142.653 60.2955C143.426 59.5833 144.025 58.5682 144.449 57.25C144.873 55.9318 145.085 54.3636 145.085 52.5455C145.085 50.7121 144.873 49.1439 144.449 47.8409C144.025 46.5227 143.426 45.5076 142.653 44.7955C141.881 44.0833 140.964 43.7273 139.903 43.7273C138.782 43.7273 137.82 44.0833 137.017 44.7955C136.214 45.5076 135.6 46.5227 135.176 47.8409C134.752 49.1439 134.54 50.7121 134.54 52.5455C134.54 54.3636 134.752 55.9318 135.176 57.25C135.6 58.5682 136.214 59.5833 137.017 60.2955C137.82 61.0076 138.782 61.3636 139.903 61.3636Z" />
  <path
    d="M120.489 35.0909L108.761 70H94.2159L82.4886 35.0909H95.6705L101.307 58.1818H101.67L107.307 35.0909H120.489Z" />
  <path
    d="M63.9716 70.6364C60.2443 70.6364 57.0322 69.9242 54.3352 68.5C51.6534 67.0606 49.5852 65 48.1307 62.3182C46.6913 59.6212 45.9716 56.3939 45.9716 52.6364C45.9716 49.0303 46.6989 45.8788 48.1534 43.1818C49.608 40.4848 51.661 38.3864 54.3125 36.8864C56.964 35.3864 60.0928 34.6364 63.6989 34.6364C66.3352 34.6364 68.7216 35.0455 70.858 35.8636C72.9943 36.6818 74.8201 37.8712 76.3352 39.4318C77.8504 40.9773 79.017 42.8561 79.8352 45.0682C80.6534 47.2803 81.0625 49.7727 81.0625 52.5455V55.4545H49.8807V48.5455H69.517C69.5019 47.5455 69.2443 46.6667 68.7443 45.9091C68.2595 45.1364 67.6004 44.5379 66.767 44.1136C65.9489 43.6742 65.017 43.4545 63.9716 43.4545C62.9564 43.4545 62.0246 43.6742 61.1761 44.1136C60.3277 44.5379 59.6458 45.1288 59.1307 45.8864C58.6307 46.6439 58.3655 47.5303 58.3352 48.5455V56C58.3352 57.1212 58.5701 58.1212 59.0398 59C59.5095 59.8788 60.1837 60.5682 61.0625 61.0682C61.9413 61.5682 63.0019 61.8182 64.2443 61.8182C65.108 61.8182 65.8958 61.697 66.608 61.4545C67.3352 61.2121 67.9564 60.8636 68.4716 60.4091C68.9867 59.9394 69.3655 59.3788 69.608 58.7273H81.0625C80.6686 61.1515 79.7367 63.2576 78.267 65.0455C76.7973 66.8182 74.8504 68.197 72.4261 69.1818C70.017 70.1515 67.1989 70.6364 63.9716 70.6364Z" />
  <path
    d="M5.0625 70V23.4545H25.1534C28.608 23.4545 31.6307 24.0833 34.2216 25.3409C36.8125 26.5985 38.8277 28.4091 40.267 30.7727C41.7064 33.1364 42.4261 35.9697 42.4261 39.2727C42.4261 42.6061 41.6837 45.4167 40.1989 47.7045C38.7292 49.9924 36.661 51.7197 33.9943 52.8864C31.3428 54.053 28.2443 54.6364 24.6989 54.6364H12.6989V44.8182H22.1534C23.6383 44.8182 24.9034 44.6364 25.9489 44.2727C27.0095 43.8939 27.8201 43.2955 28.3807 42.4773C28.9564 41.6591 29.2443 40.5909 29.2443 39.2727C29.2443 37.9394 28.9564 36.8561 28.3807 36.0227C27.8201 35.1742 27.0095 34.553 25.9489 34.1591C24.9034 33.75 23.6383 33.5455 22.1534 33.5455H17.6989V70H5.0625ZM32.3352 48.6364L43.9716 70H30.2443L18.8807 48.6364H32.3352Z" />
</svg>